<svg id="Capa_1" enable-background="new 0 0 510 510" height="512" viewBox="0 0 510 510" width="512" xmlns="http://www.w3.org/2000/svg"><g id="XMLID_2800_"><path id="XMLID_2798_" d="m422.241 0c-22.592 0-311.888 0-334.483 0-48.388 0-87.758 39.367-87.758 87.758v167.242l255 15 255-15c0-18.836 0-147.394 0-167.242 0-48.389-39.367-87.758-87.759-87.758z" fill="#7ed8f6"/><path id="XMLID_2799_" d="m0 422.241c0 48.389 39.366 87.759 87.758 87.759h334.483c48.389 0 87.759-39.367 87.759-87.759 0-18.835 0-147.393 0-167.241-14.385 0-495.615 0-510 0z" fill="#6aa9ff"/><path id="XMLID_2756_" d="m360 217.5-15 18.75 15 18.75 45 15 45-15c0-9.975 0-72.459 0-82.5-24.392 12.195-75.636 37.818-90 45z" fill="#4e588b"/><path id="XMLID_2785_" d="m322.833 150c-15.254 0-210.41 0-225.667 0-20.525 0-37.166 16.64-37.166 37.167v67.833l150 15 150-15c0-18.365 0-56.986 0-67.833 0-20.526-16.64-37.167-37.167-37.167z" fill="#293e65"/><path id="XMLID_2757_" d="m360 292.5c24.392 12.195 75.636 37.818 90 45 0-9.975 0-72.459 0-82.5-10.889 0-79.04 0-90 0l-15 18.75z" fill="#293e65"/><path id="XMLID_2792_" d="m60 322.833c0 20.526 16.64 37.167 37.166 37.167h225.667c20.526 0 37.167-16.64 37.167-37.167 0-18.364 0-56.986 0-67.833-16.651 0-283.349 0-300 0z" fill="#182a4c"/><path id="XMLID_2650_" d="m135 210v45l75 15 75-15c0-14.981 0-30.019 0-45-10.128 0-139.871 0-150 0z" fill="#fd676a"/><path id="XMLID_2729_" d="m135 300h150c0-14.981 0-30.019 0-45-10.128 0-139.871 0-150 0z" fill="#e4336d"/></g></svg>